:version 1.10
:name ASF
:units
  mass 1
  length 1
  angle deg
:documentation
  ASF file generated by Kaydara
:root
  axis xyz
  order  tx ty tz rx ry rz
  position 0 0 0
  orientation 0 0 0
:bonedata
  begin
    id 1
    name abdomenDummy
    direction 1 -1.27917e-005 -1.26829e-007
    length 1.79048
    axis 0 0 0 xyz
  end
  begin
    id 2
    name abdomen
    direction 0.987238 0.159249 -9.68575e-008
    length 8.61378
    axis 2.73208e-005 5.54953e-006 9.16328 xyz
    dof rx ry rz
  end
  begin
    id 3
    name chest
    direction 0 0 0
    length 0
    axis 2.65071e-005 8.63688e-006 2.59796 xyz
    dof rx ry rz
  end
  begin
    id 4
    name neckDummyDummy
    direction 0.998972 0.0453274 -1.50742e-007
    length 9.56202
    axis 2.65071e-005 8.63688e-006 2.59796 xyz
  end
  begin
    id 5
    name neckDummy
    direction 0.99977 0.0214525 -1.61748e-007
    length 1.93574
    axis 2.62932e-005 9.26758e-006 1.22924 xyz
    dof rx ry rz
  end
  begin
    id 6
    name neck
    direction 0.99928 -0.0379406 -1.88707e-007
    length 3.70367
    axis 2.56966e-005 1.08122e-005 -2.17436 xyz
    dof rx ry rz
  end
  begin
    id 7
    name head
    direction 0.992648 -0.121037 -2.25408e-007
    length 6.35158
    axis 2.47068e-005 1.29149e-005 -6.95196 xyz
    dof rx ry rz
  end
  begin
    id 8
    name figureHair
    direction -0.86681 -0.498639 -7.83376e-008
    length 8.29884
    axis -2.7515e-005 4.48842e-006 -150.09 xyz
    dof rx ry rz
  end
  begin
    id 9
    name lCollarDummy
    direction 0.994611 0.0451299 -0.0933417
    length 9.60395
    axis 2.65071e-005 8.63688e-006 2.59796 xyz
  end
  begin
    id 10
    name lCollar
    direction 0.0384146 0.00127577 -0.999261
    length 6.95318
    axis 90.4899 87.7973 1.90202 xyz
    dof rx ry rz
  end
  begin
    id 11
    name lShldr
    direction -0.030648 0.0920515 -0.995282
    length 9.61158
    axis -161.793 84.4324 108.415 xyz
    dof rx ry rz
  end
  begin
    id 12
    name lForeArm
    direction 0.000163956 -0.0977586 -0.99521
    length 8.6068
    axis 0.134773 84.3899 -89.8525 xyz
    dof rx ry rz
  end
  begin
    id 13
    name lHand
    direction -0.0190533 -0.1444 -0.989336
    length 7.61479
    axis -7.3729 81.6249 -97.517 xyz
    dof rx ry rz
  end
  begin
    id 14
    name rCollarDummy
    direction 0.994871 0.0442627 0.0909555
    length 9.60761
    axis 2.65071e-005 8.63688e-006 2.59796 xyz
  end
  begin
    id 15
    name rCollar
    direction 0.0334251 -4.74072e-007 0.999441
    length 6.97058
    axis -178.152 -88.0845 -0.000674207 xyz
    dof rx ry rz
  end
  begin
    id 16
    name rShldr
    direction -0.026922 0.0719509 0.997045
    length 9.60913
    axis 71.2822 -85.594 110.514 xyz
    dof rx ry rz
  end
  begin
    id 17
    name rForeArm
    direction 0.00134679 -0.118986 0.992895
    length 8.57176
    axis -88.7923 -83.1659 -89.3516 xyz
    dof rx ry rz
  end
  begin
    id 18
    name rHand
    direction -0.0185183 -0.0768601 0.99687
    length 7.69687
    axis -74.5596 -85.4655 -103.546 xyz
    dof rx ry rz
  end
  begin
    id 19
    name lThighDummy
    direction -0.236086 -0.0385456 -0.970967
    length 4.99155
    axis 0 0 0 xyz
  end
  begin
    id 20
    name lThigh
    direction -0.993968 0.0148998 -0.108653
    length 13.572
    axis -91.4001 6.23768 179.141 xyz
    dof rx ry rz
  end
  begin
    id 21
    name lShin
    direction -0.992341 0.0904576 -0.0841193
    length 18.5862
    axis -91.4558 4.82538 174.792 xyz
    dof rx ry rz
  end
  begin
    id 22
    name lFoot
    direction 0.0209381 -0.999771 -0.00453005
    length 8.44474
    axis 4.86759 0.259522 -88.8001 xyz
    dof rx ry rz
  end
  begin
    id 23
    name rThighDummy
    direction -0.236086 -0.0385456 0.970967
    length 4.99155
    axis 0 0 0 xyz
  end
  begin
    id 24
    name rThigh
    direction -0.993968 0.0148995 0.108653
    length 13.5721
    axis -89.7059 -6.2377 179.141 xyz
    dof rx ry rz
  end
  begin
    id 25
    name rShin
    direction -0.9925 0.0899962 0.0827255
    length 18.6716
    axis -89.2745 -4.74775 174.819 xyz
    dof rx ry rz
  end
  begin
    id 26
    name rFoot
    direction 0.0301721 -0.999545 9.70865e-005
    length 8.45013
    axis -2.50066e-005 -0.00555246 -88.271 xyz
    dof rx ry rz
  end
:hierarchy
  begin
    root abdomenDummy lThighDummy rThighDummy
    abdomenDummy abdomen
    abdomen chest
    chest neckDummyDummy lCollarDummy rCollarDummy
    neckDummyDummy neckDummy
    neckDummy neck
    neck head
    head figureHair
    lCollarDummy lCollar
    lCollar lShldr
    lShldr lForeArm
    lForeArm lHand
    rCollarDummy rCollar
    rCollar rShldr
    rShldr rForeArm
    rForeArm rHand
    lThighDummy lThigh
    lThigh lShin
    lShin lFoot
    rThighDummy rThigh
    rThigh rShin
    rShin rFoot
  end

:SAMPLES-PER-SECOND 25
:FULLY-SPECIFIED
:DEGREES
1399
root  2.90801 36.9945 -1.81802 177.46 -0.169586 87.2328
abdomen  -0.255366 -3.77183 4.54612
chest  0.422413 0.521257 -3.8462
neckDummy  9.09964e-021 0 8.72668e-016
neck  6.86555 10.9828 13.6452
head  1.91964 -5.74037 -3.12334
figureHair  0 1.51661e-021 -9.5315e-016
lCollar  -5.15695e-016 -6.42944e-016 -7.59357e-014
lShldr  22.3578 16.0681 -75.3971
lForeArm  20.5191 -19.1813 -0.677818
lHand  0.254698 0.195082 5.2986
rCollar  1.7976e-016 -5.12864e-014 1.62755e-015
rShldr  -49.8735 67.3476 -35.3417
rForeArm  -3.58166 2.68264 14.4121
rHand  -0.200155 -18.5458 5.53039
lThigh  -6.88262 2.19239 -0.668956
lShin  -14.1473 2.83837 -4.37785
lFoot  6.41176 -0.674334 -0.724194
rThigh  9.35392 -0.460623 -0.669436
rShin  7.77096 5.9454 3.22322
rFoot  -5.25284 0.457881 -1.39149
1400
root  2.79858 36.9932 -1.84648 177.314 -0.190002 87.3755
abdomen  -0.35087 -3.8965 5.36214
chest  0.389183 0.596769 -4.09367
neckDummy  9.09964e-021 0 8.72668e-016
neck  7.04216 11.1315 13.1835
head  2.08892 -5.74053 -3.36054
figureHair  0 1.51661e-021 -9.5315e-016
lCollar  -5.15695e-016 -6.42944e-016 -7.59357e-014
lShldr  24.1542 15.337 -75.4455
lForeArm  20.2768 -17.8654 -0.882725
lHand  0.254698 0.195082 5.2986
rCollar  1.7976e-016 -5.12864e-014 1.62755e-015
rShldr  -48.2786 67.6547 -33.9217
rForeArm  -4.81545 3.32456 13.3696
rHand  -0.129827 -18.3621 5.14418
lThigh  -6.90602 2.30284 -0.604804
lShin  -14.2641 2.73252 -4.40205
lFoot  6.38044 -0.673715 -0.68059
rThigh  9.3396 -0.447099 -0.605147
rShin  7.69545 5.9246 3.24044
rFoot  -5.33018 0.47266 -1.34363
1401
root  2.74441 36.9989 -1.88204 177.125 -0.151886 87.9484
abdomen  -0.322352 -3.97515 5.93327
chest  0.47224 0.725938 -3.82208
neckDummy  9.09964e-021 0 8.72668e-016
neck  7.13184 11.0108 13.1278
head  2.24597 -5.57137 -3.65301
figureHair  0 1.51661e-021 -9.5315e-016
lCollar  -5.15695e-016 -6.42944e-016 -7.59357e-014
lShldr  25.3902 14.6011 -75.2572
lForeArm  20.3611 -17.1354 -1.1841
lHand  0.254698 0.195082 5.2986
rCollar  1.7976e-016 -5.12864e-014 1.62755e-015
rShldr  -47.4605 67.916 -32.8109
rForeArm  -4.96085 3.42944 13.2404
rHand  -0.0963918 -18.1396 4.95861
lThigh  -6.83453 2.18278 -0.591746
lShin  -14.5129 2.13366 -4.46683
lFoot  6.29263 -0.65319 -0.883884
rThigh  9.37871 -0.753783 -0.622141
rShin  7.55436 5.56618 3.37521
rFoot  -5.32283 0.461029 -1.42628
1402
root  2.7709 37.0086 -1.93484 177.009 -0.0943909 88.5967
abdomen  -0.236048 -3.93969 5.8565
chest  0.565097 0.843156 -3.32354
neckDummy  9.09964e-021 0 8.72668e-016
neck  7.15115 10.6087 13.9422
head  2.36547 -5.22122 -4.10552
figureHair  0 1.51661e-021 -9.5315e-016
lCollar  -5.15695e-016 -6.42944e-016 -7.59357e-014
lShldr  25.9524 13.4228 -75.0172
lForeArm  20.4533 -16.5939 -1.46945
lHand  0.254698 0.195082 5.2986
rCollar  1.7976e-016 -5.12864e-014 1.62755e-015
rShldr  -46.1604 68.4758 -31.1233
rForeArm  -4.86585 3.20825 13.587
rHand  -0.12687 -17.9678 5.13171
lThigh  -6.80679 1.82391 -0.522791
lShin  -14.6692 1.54775 -4.52917
lFoot  6.2182 -0.628747 -1.18474
rThigh  9.31295 -1.24465 -0.565619
rShin  7.54619 5.14725 3.49095
rFoot  -5.30061 0.43832 -1.58149
1403
root  2.85689 37.0208 -1.99287 177.027 -0.220505 89.3381
abdomen  -0.230914 -3.92693 5.36847
chest  0.588436 1.08757 -2.80476
neckDummy  9.09964e-021 0 8.72668e-016
neck  7.23542 10.1603 15.3679
head  2.50837 -5.06956 -4.80711
figureHair  0 1.51661e-021 -9.5315e-016
lCollar  -5.15695e-016 -6.42944e-016 -7.59357e-014
lShldr  26.2322 11.6943 -74.7055
lForeArm  20.5844 -15.9813 -1.83987
lHand  0.254698 0.195082 5.2986
rCollar  1.7976e-016 -5.12864e-014 1.62755e-015
rShldr  -44.2991 69.3214 -28.2741
rForeArm  -4.62402 2.88963 14.1299
rHand  -0.181859 -17.9834 5.44377
lThigh  -6.90655 1.17273 -0.346987
lShin  -14.5991 1.1788 -4.65136
lFoot  6.15534 -0.60478 -1.50722
rThigh  9.18551 -1.95513 -0.452633
rShin  7.72466 4.86723 3.59357
rFoot  -5.38055 0.419434 -1.79122
1404
root  2.97941 37.0324 -2.05195 177.213 0.0311127 90.0017
abdomen  -0.289492 -3.8025 4.69334
chest  0.518833 1.26757 -2.32165
neckDummy  9.09964e-021 0 8.72668e-016
neck  7.42445 9.92467 16.8732
head  2.65626 -5.32582 -5.61286
figureHair  0 1.51661e-021 -9.5315e-016
lCollar  -5.15695e-016 -6.42944e-016 -7.59357e-014
lShldr  27.0955 9.5593 -74.242
lForeArm  20.5762 -15.5308 -2.1746
lHand  0.254698 0.195082 5.2986
rCollar  1.7976e-016 -5.12864e-014 1.62755e-015
rShldr  -42.199 70.1397 -24.042
rForeArm  -3.76933 2.524 14.8526
rHand  -0.181647 -18.0616 5.44066
lThigh  -7.03121 0.289459 -0.144246
lShin  -14.3526 0.978407 -4.77818
lFoot  6.06264 -0.575619 -1.88279
rThigh  9.14564 -2.75635 -0.386405
rShin  8.04383 4.64935 3.78638
rFoot  -5.5886 0.407563 -2.04642
1405
root  3.13705 37.0441 -2.11414 177.456 -0.127289 90.8014
abdomen  -0.280597 -3.41829 3.95456
chest  0.426386 1.14774 -1.93898
neckDummy  9.09964e-021 0 8.72668e-016
neck  7.52049 9.78986 18.0237
head  2.71357 -5.62606 -6.32883
figureHair  0 1.51661e-021 -9.5315e-016
lCollar  -5.15695e-016 -6.42944e-016 -7.59357e-014
lShldr  28.566 7.22501 -73.7309
lForeArm  20.4088 -15.5436 -2.22249
lHand  0.254698 0.195082 5.2986
rCollar  1.7976e-016 -5.12864e-014 1.62755e-015
rShldr  -39.4765 70.723 -18.6163
rForeArm  -2.42645 2.0913 15.7375
rHand  -0.124279 -18.0919 5.11589
lThigh  -7.01279 -0.716506 -0.0323634
lShin  -14.2087 0.795486 -4.79218
lFoot  5.91642 -0.538446 -2.32679
rThigh  9.17344 -3.56036 -0.380374
rShin  8.36469 4.33411 4.04007
rFoot  -5.80418 0.387335 -2.36277
1406
root  3.31199 37.0579 -2.1739 177.539 -0.0284729 91.6213
abdomen  -0.200377 -3.06948 3.28169
chest  0.40718 0.986514 -1.60585
neckDummy  9.09964e-021 0 8.72668e-016
neck  7.50124 9.59633 18.6281
head  2.74443 -5.70664 -6.90606
figureHair  0 1.51661e-021 -9.5315e-016
lCollar  -5.15695e-016 -6.42944e-016 -7.59357e-014
lShldr  29.8982 5.03519 -73.3241
lForeArm  20.0738 -16.1016 -1.86544
lHand  0.254698 0.195082 5.2986
rCollar  1.7976e-016 -5.12864e-014 1.62755e-015
rShldr  -35.622 71.1492 -12.4699
rForeArm  -1.33332 1.72442 16.5314
rHand  -0.104284 -18.1669 5.00244
lThigh  -6.92157 -1.72278 0.0357167
lShin  -14.3175 0.50101 -4.77372
lFoot  5.76161 -0.501121 -2.77822
rThigh  9.12674 -4.42729 -0.350413
rShin  8.53917 3.90084 4.23047
rFoot  -5.94252 0.347406 -2.75906
1407
root  3.47295 37.0709 -2.22992 177.407 -0.0234222 92.4869
abdomen  -0.120353 -2.95663 2.60732
chest  0.452314 0.980718 -1.01759
neckDummy  9.09964e-021 0 8.72668e-016
neck  7.60676 9.53355 18.6743
head  2.88185 -5.77877 -7.28501
figureHair  0 1.51661e-021 -9.5315e-016
lCollar  -5.15695e-016 -6.42944e-016 -7.59357e-014
lShldr  30.4331 3.39735 -73.0999
lForeArm  19.5726 -17.1857 -1.22842
lHand  0.254698 0.195082 5.2986
rCollar  1.7976e-016 -5.12864e-014 1.62755e-015
rShldr  -31.2162 71.4583 -6.19531
rForeArm  -0.700371 1.50939 17.0745
rHand  -0.133549 -18.3655 5.165
lThigh  -6.92707 -2.63607 0.177474
lShin  -14.5384 0.107758 -4.84591
lFoot  5.63818 -0.470015 -3.18772
rThigh  8.97621 -5.35046 -0.246014
rShin  8.57671 3.43772 4.33785
rFoot  -6.0145 0.29653 -3.18169
1408
root  3.60598 37.0803 -2.28075 177.143 -0.0243683 93.2672
abdomen  -0.0350392 -2.94459 1.8394
chest  0.530455 1.03749 -0.104304
neckDummy  9.09964e-021 0 8.72668e-016
neck  7.78397 9.61768 18.2878
head  3.05491 -5.91123 -7.45248
figureHair  0 1.51661e-021 -9.5315e-016
lCollar  -5.15695e-016 -6.42944e-016 -7.59357e-014
lShldr  29.3822 2.4901 -73.0671
lForeArm  19.6648 -18.7918 -0.698299
lHand  0.254698 0.195082 5.2986
rCollar  1.7976e-016 -5.12864e-014 1.62755e-015
rShldr  -27.1996 71.6062 -0.628339
rForeArm  -0.437931 1.34406 17.5728
rHand  -0.13022 -18.5131 5.14473
lThigh  -6.97059 -3.38747 0.342932
lShin  -14.8272 -0.290479 -4.93963
lFoot  5.53907 -0.4439 -3.54653
rThigh  8.83311 -6.21962 -0.128969
rShin  8.49536 3.05441 4.42513
rFoot  -6.0366 0.24707 -3.55781
1409
root  3.70816 37.087 -2.31886 176.786 -0.0204315 93.8281
abdomen  0.0564974 -2.97685 1.15428
chest  0.635906 1.15498 0.627294
neckDummy  9.09964e-021 0 8.72668e-016
neck  7.83248 9.55769 17.8275
head  3.17364 -5.88978 -7.5062
figureHair  0 1.51661e-021 -9.5315e-016
lCollar  -5.15695e-016 -6.42944e-016 -7.59357e-014
lShldr  26.4921 2.16849 -73.1368
lForeArm  20.904 -20.9308 -0.586357
lHand  0.254698 0.195082 5.2986
rCollar  1.7976e-016 -5.12864e-014 1.62755e-015
rShldr  -23.2835 71.7063 3.94095
rForeArm  -0.731825 1.1801 18.2578
rHand  -0.0989003 -18.3757 4.9719
lThigh  -6.9836 -3.91208 0.462022
lShin  -15.2174 -0.564305 -4.99046
lFoot  5.45354 -0.424655 -3.79844
rThigh  8.75469 -6.88991 -0.048037
rShin  8.26308 2.78671 4.50317
rFoot  -6.0403 0.205287 -3.86547
